<mxfile host="app.diagrams.net" modified="2023-11-03T20:14:43.320Z" agent="Mozilla/5.0 (Windows NT 10.0; Win64; x64) AppleWebKit/537.36 (KHTML, like Gecko) Chrome/119.0.0.0 Safari/537.36" etag="XUBk7kdXqBDh4XmqVIXZ" version="22.0.8" type="device">
  <diagram name="Pagina-1" id="TJIYRlZVVNKg7LEigqh6">
    <mxGraphModel dx="899" dy="369" grid="1" gridSize="10" guides="1" tooltips="1" connect="1" arrows="1" fold="1" page="1" pageScale="1" pageWidth="827" pageHeight="1169" math="0" shadow="0">
      <root>
        <mxCell id="0" />
        <mxCell id="1" parent="0" />
        <mxCell id="VYkuQ8G43RXA0hPSaBdG-6" value="" style="html=1;whiteSpace=wrap;fillColor=none;" parent="1" vertex="1">
          <mxGeometry x="118" y="40" width="600" height="620" as="geometry" />
        </mxCell>
        <mxCell id="VYkuQ8G43RXA0hPSaBdG-1" value="Customer" style="shape=umlActor;verticalLabelPosition=bottom;verticalAlign=top;html=1;" parent="1" vertex="1">
          <mxGeometry x="38" y="210" width="30" height="60" as="geometry" />
        </mxCell>
        <mxCell id="VYkuQ8G43RXA0hPSaBdG-4" value="Manager" style="shape=umlActor;verticalLabelPosition=bottom;verticalAlign=top;html=1;" parent="1" vertex="1">
          <mxGeometry x="38" y="490" width="30" height="60" as="geometry" />
        </mxCell>
        <mxCell id="VYkuQ8G43RXA0hPSaBdG-8" value="&lt;font style=&quot;font-size: 11px;&quot;&gt;Delete Reservation&lt;/font&gt;" style="ellipse;whiteSpace=wrap;html=1;" parent="1" vertex="1">
          <mxGeometry x="191.75" y="270" width="100" height="60" as="geometry" />
        </mxCell>
        <mxCell id="VYkuQ8G43RXA0hPSaBdG-9" value="&lt;font style=&quot;font-size: 11px;&quot;&gt;Log In&lt;/font&gt;" style="ellipse;whiteSpace=wrap;html=1;" parent="1" vertex="1">
          <mxGeometry x="398" y="340" width="100" height="60" as="geometry" />
        </mxCell>
        <mxCell id="YGv7T2RvrnoPIYcgh6Ru-1" value="&lt;font style=&quot;font-size: 11px;&quot;&gt;Join &lt;u&gt;Shared Match&lt;/u&gt;&amp;nbsp;&lt;/font&gt;" style="ellipse;whiteSpace=wrap;html=1;" parent="1" vertex="1">
          <mxGeometry x="193" y="200" width="100" height="60" as="geometry" />
        </mxCell>
        <mxCell id="YGv7T2RvrnoPIYcgh6Ru-2" value="&lt;font style=&quot;font-size: 11px;&quot;&gt;Book Football Pitch&lt;/font&gt;" style="ellipse;whiteSpace=wrap;html=1;" parent="1" vertex="1">
          <mxGeometry x="195.5" y="130" width="100" height="60" as="geometry" />
        </mxCell>
        <mxCell id="YGv7T2RvrnoPIYcgh6Ru-4" value="&lt;font style=&quot;font-size: 11px;&quot;&gt;Add Football Pitch&lt;/font&gt;" style="ellipse;whiteSpace=wrap;html=1;" parent="1" vertex="1">
          <mxGeometry x="193.62" y="370" width="100" height="60" as="geometry" />
        </mxCell>
        <mxCell id="YGv7T2RvrnoPIYcgh6Ru-7" value="&lt;font style=&quot;font-size: 12px;&quot;&gt;Google API&lt;br&gt;&lt;/font&gt;" style="shape=umlActor;verticalLabelPosition=bottom;verticalAlign=top;html=1;" parent="1" vertex="1">
          <mxGeometry x="758" y="180" width="30" height="60" as="geometry" />
        </mxCell>
        <mxCell id="YGv7T2RvrnoPIYcgh6Ru-24" value="" style="endArrow=classic;html=1;rounded=0;exitX=1;exitY=0.3333333333333333;exitDx=0;exitDy=0;exitPerimeter=0;entryX=0;entryY=0.5;entryDx=0;entryDy=0;" parent="1" source="VYkuQ8G43RXA0hPSaBdG-1" target="YGv7T2RvrnoPIYcgh6Ru-2" edge="1">
          <mxGeometry width="50" height="50" relative="1" as="geometry">
            <mxPoint x="388" y="300" as="sourcePoint" />
            <mxPoint x="438" y="250" as="targetPoint" />
          </mxGeometry>
        </mxCell>
        <mxCell id="YGv7T2RvrnoPIYcgh6Ru-30" value="" style="endArrow=classic;html=1;rounded=0;exitX=1;exitY=0.3333333333333333;exitDx=0;exitDy=0;exitPerimeter=0;entryX=0;entryY=0.5;entryDx=0;entryDy=0;" parent="1" source="VYkuQ8G43RXA0hPSaBdG-1" target="YGv7T2RvrnoPIYcgh6Ru-1" edge="1">
          <mxGeometry width="50" height="50" relative="1" as="geometry">
            <mxPoint x="308" y="340" as="sourcePoint" />
            <mxPoint x="358" y="290" as="targetPoint" />
          </mxGeometry>
        </mxCell>
        <mxCell id="YGv7T2RvrnoPIYcgh6Ru-35" value="" style="endArrow=classic;html=1;rounded=0;entryX=0;entryY=0.3333333333333333;entryDx=0;entryDy=0;entryPerimeter=0;exitX=1;exitY=0.5;exitDx=0;exitDy=0;" parent="1" source="pXMUvUlf4i8bMqYEDKzL-3" target="YGv7T2RvrnoPIYcgh6Ru-7" edge="1">
          <mxGeometry width="50" height="50" relative="1" as="geometry">
            <mxPoint x="538" y="310" as="sourcePoint" />
            <mxPoint x="588" y="260" as="targetPoint" />
          </mxGeometry>
        </mxCell>
        <mxCell id="pXMUvUlf4i8bMqYEDKzL-3" value="&lt;font style=&quot;font-size: 11px;&quot;&gt;Log In Via Gmail&lt;/font&gt;" style="ellipse;whiteSpace=wrap;html=1;" parent="1" vertex="1">
          <mxGeometry x="398" y="170" width="100" height="60" as="geometry" />
        </mxCell>
        <mxCell id="pXMUvUlf4i8bMqYEDKzL-4" value="" style="endArrow=classic;html=1;rounded=0;exitX=0.5;exitY=1;exitDx=0;exitDy=0;entryX=0.5;entryY=0;entryDx=0;entryDy=0;" parent="1" source="pXMUvUlf4i8bMqYEDKzL-3" target="VYkuQ8G43RXA0hPSaBdG-9" edge="1">
          <mxGeometry relative="1" as="geometry">
            <mxPoint x="478" y="240" as="sourcePoint" />
            <mxPoint x="578" y="240" as="targetPoint" />
          </mxGeometry>
        </mxCell>
        <mxCell id="pXMUvUlf4i8bMqYEDKzL-5" value="Extends" style="edgeLabel;resizable=0;html=1;align=center;verticalAlign=middle;" parent="pXMUvUlf4i8bMqYEDKzL-4" connectable="0" vertex="1">
          <mxGeometry relative="1" as="geometry" />
        </mxCell>
        <mxCell id="pXMUvUlf4i8bMqYEDKzL-6" value="&lt;font style=&quot;font-size: 11px;&quot;&gt;Create Account&lt;/font&gt;" style="ellipse;whiteSpace=wrap;html=1;" parent="1" vertex="1">
          <mxGeometry x="398" y="480" width="100" height="60" as="geometry" />
        </mxCell>
        <mxCell id="pXMUvUlf4i8bMqYEDKzL-7" value="Extends" style="endArrow=classic;html=1;rounded=0;entryX=0.5;entryY=1;entryDx=0;entryDy=0;exitX=0.5;exitY=0;exitDx=0;exitDy=0;" parent="1" source="pXMUvUlf4i8bMqYEDKzL-6" target="VYkuQ8G43RXA0hPSaBdG-9" edge="1">
          <mxGeometry relative="1" as="geometry">
            <mxPoint x="448" y="380" as="sourcePoint" />
            <mxPoint x="548" y="380" as="targetPoint" />
          </mxGeometry>
        </mxCell>
        <mxCell id="pXMUvUlf4i8bMqYEDKzL-13" value="" style="endArrow=classic;html=1;rounded=0;exitX=1;exitY=0.3333333333333333;exitDx=0;exitDy=0;exitPerimeter=0;entryX=0;entryY=0.5;entryDx=0;entryDy=0;" parent="1" source="VYkuQ8G43RXA0hPSaBdG-4" target="YGv7T2RvrnoPIYcgh6Ru-4" edge="1">
          <mxGeometry width="50" height="50" relative="1" as="geometry">
            <mxPoint x="328" y="560" as="sourcePoint" />
            <mxPoint x="378" y="510" as="targetPoint" />
          </mxGeometry>
        </mxCell>
        <mxCell id="pXMUvUlf4i8bMqYEDKzL-24" value="&lt;font style=&quot;font-size: 11px;&quot;&gt;Create &lt;u&gt;Shared Match&lt;/u&gt;&lt;/font&gt;" style="ellipse;whiteSpace=wrap;html=1;" parent="1" vertex="1">
          <mxGeometry x="348" y="60" width="100" height="60" as="geometry" />
        </mxCell>
        <mxCell id="pXMUvUlf4i8bMqYEDKzL-35" value="*" style="text;html=1;strokeColor=none;fillColor=none;align=center;verticalAlign=middle;whiteSpace=wrap;rounded=0;" parent="1" vertex="1">
          <mxGeometry x="238" y="200" width="60" height="30" as="geometry" />
        </mxCell>
        <mxCell id="pXMUvUlf4i8bMqYEDKzL-37" value="*" style="text;html=1;strokeColor=none;fillColor=none;align=center;verticalAlign=middle;whiteSpace=wrap;rounded=0;" parent="1" vertex="1">
          <mxGeometry x="238" y="130" width="60" height="30" as="geometry" />
        </mxCell>
        <mxCell id="pXMUvUlf4i8bMqYEDKzL-38" value="&lt;font style=&quot;font-size: 14px;&quot;&gt;&lt;b&gt;Dictionary&lt;br&gt;&lt;br&gt;&lt;/b&gt;*: includes Log In&amp;nbsp;&lt;br&gt;Shared Match:&amp;nbsp;a reservation open to other customers in the system, with a limited number of participants&lt;br&gt;&lt;/font&gt;" style="text;html=1;strokeColor=none;fillColor=none;align=left;verticalAlign=middle;whiteSpace=wrap;rounded=0;" parent="1" vertex="1">
          <mxGeometry x="38" y="670" width="672" height="130" as="geometry" />
        </mxCell>
        <mxCell id="JSUpxwKBtzQWxORTPVua-3" value="" style="endArrow=classic;html=1;rounded=0;exitX=0;exitY=1;exitDx=0;exitDy=0;entryX=1;entryY=0;entryDx=0;entryDy=0;" parent="1" source="pXMUvUlf4i8bMqYEDKzL-24" target="YGv7T2RvrnoPIYcgh6Ru-2" edge="1">
          <mxGeometry relative="1" as="geometry">
            <mxPoint x="398" y="130" as="sourcePoint" />
            <mxPoint x="308" y="130" as="targetPoint" />
          </mxGeometry>
        </mxCell>
        <mxCell id="JSUpxwKBtzQWxORTPVua-4" value="Extends" style="edgeLabel;resizable=0;html=1;align=center;verticalAlign=middle;" parent="JSUpxwKBtzQWxORTPVua-3" connectable="0" vertex="1">
          <mxGeometry relative="1" as="geometry" />
        </mxCell>
        <mxCell id="JSUpxwKBtzQWxORTPVua-5" value="&lt;font style=&quot;font-size: 11px;&quot;&gt;Update Rates&lt;/font&gt;" style="ellipse;whiteSpace=wrap;html=1;" parent="1" vertex="1">
          <mxGeometry x="193.62" y="440" width="100" height="60" as="geometry" />
        </mxCell>
        <mxCell id="3cIT5jCqNrF9T8N8SsBt-2" value="*" style="text;html=1;strokeColor=none;fillColor=none;align=center;verticalAlign=middle;whiteSpace=wrap;rounded=0;" parent="1" vertex="1">
          <mxGeometry x="236.12" y="370" width="60" height="30" as="geometry" />
        </mxCell>
        <mxCell id="3cIT5jCqNrF9T8N8SsBt-3" value="*" style="text;html=1;strokeColor=none;fillColor=none;align=center;verticalAlign=middle;whiteSpace=wrap;rounded=0;" parent="1" vertex="1">
          <mxGeometry x="234.87" y="440" width="60" height="30" as="geometry" />
        </mxCell>
        <mxCell id="3cIT5jCqNrF9T8N8SsBt-4" value="" style="endArrow=classic;html=1;rounded=0;exitX=1;exitY=0.3333333333333333;exitDx=0;exitDy=0;exitPerimeter=0;entryX=0;entryY=0.5;entryDx=0;entryDy=0;" parent="1" source="VYkuQ8G43RXA0hPSaBdG-4" target="JSUpxwKBtzQWxORTPVua-5" edge="1">
          <mxGeometry width="50" height="50" relative="1" as="geometry">
            <mxPoint x="338" y="600" as="sourcePoint" />
            <mxPoint x="388" y="550" as="targetPoint" />
          </mxGeometry>
        </mxCell>
        <mxCell id="CUCYZQs7ReIc307yx0Ik-1" value="*" style="text;html=1;strokeColor=none;fillColor=none;align=center;verticalAlign=middle;whiteSpace=wrap;rounded=0;" parent="1" vertex="1">
          <mxGeometry x="234.25" y="270" width="60" height="30" as="geometry" />
        </mxCell>
        <mxCell id="CUCYZQs7ReIc307yx0Ik-2" value="" style="endArrow=classic;html=1;rounded=0;exitX=1;exitY=0.3333333333333333;exitDx=0;exitDy=0;exitPerimeter=0;entryX=0;entryY=0.5;entryDx=0;entryDy=0;" parent="1" source="VYkuQ8G43RXA0hPSaBdG-1" target="VYkuQ8G43RXA0hPSaBdG-8" edge="1">
          <mxGeometry width="50" height="50" relative="1" as="geometry">
            <mxPoint x="408" y="290" as="sourcePoint" />
            <mxPoint x="458" y="240" as="targetPoint" />
          </mxGeometry>
        </mxCell>
        <mxCell id="CUCYZQs7ReIc307yx0Ik-4" value="&lt;font style=&quot;font-size: 12px;&quot;&gt;Facebook API&lt;br&gt;&lt;/font&gt;" style="shape=umlActor;verticalLabelPosition=bottom;verticalAlign=top;html=1;" parent="1" vertex="1">
          <mxGeometry x="758" y="350" width="30" height="60" as="geometry" />
        </mxCell>
        <mxCell id="CUCYZQs7ReIc307yx0Ik-6" value="&lt;font style=&quot;font-size: 11px;&quot;&gt;Log In Via Facebook&lt;/font&gt;" style="ellipse;whiteSpace=wrap;html=1;" parent="1" vertex="1">
          <mxGeometry x="578" y="340" width="100" height="60" as="geometry" />
        </mxCell>
        <mxCell id="CUCYZQs7ReIc307yx0Ik-7" value="Extends" style="endArrow=classic;html=1;rounded=0;entryX=1;entryY=0.5;entryDx=0;entryDy=0;exitX=0;exitY=0.5;exitDx=0;exitDy=0;" parent="1" source="CUCYZQs7ReIc307yx0Ik-6" target="VYkuQ8G43RXA0hPSaBdG-9" edge="1">
          <mxGeometry relative="1" as="geometry">
            <mxPoint x="528" y="435" as="sourcePoint" />
            <mxPoint x="528" y="340" as="targetPoint" />
          </mxGeometry>
        </mxCell>
        <mxCell id="CUCYZQs7ReIc307yx0Ik-8" value="" style="endArrow=classic;html=1;rounded=0;entryX=0;entryY=0.3333333333333333;entryDx=0;entryDy=0;entryPerimeter=0;exitX=1;exitY=0.5;exitDx=0;exitDy=0;" parent="1" source="CUCYZQs7ReIc307yx0Ik-6" target="CUCYZQs7ReIc307yx0Ik-4" edge="1">
          <mxGeometry width="50" height="50" relative="1" as="geometry">
            <mxPoint x="648" y="370" as="sourcePoint" />
            <mxPoint x="698" y="320" as="targetPoint" />
          </mxGeometry>
        </mxCell>
        <mxCell id="CUCYZQs7ReIc307yx0Ik-9" value="&lt;span style=&quot;font-size: 11px;&quot;&gt;Add Football Facility&lt;/span&gt;" style="ellipse;whiteSpace=wrap;html=1;" parent="1" vertex="1">
          <mxGeometry x="193.62" y="510" width="100" height="60" as="geometry" />
        </mxCell>
        <mxCell id="CUCYZQs7ReIc307yx0Ik-10" value="*" style="text;html=1;strokeColor=none;fillColor=none;align=center;verticalAlign=middle;whiteSpace=wrap;rounded=0;" parent="1" vertex="1">
          <mxGeometry x="234.87" y="510" width="60" height="30" as="geometry" />
        </mxCell>
        <mxCell id="CUCYZQs7ReIc307yx0Ik-11" value="" style="endArrow=classic;html=1;rounded=0;exitX=1;exitY=0.3333333333333333;exitDx=0;exitDy=0;exitPerimeter=0;entryX=0;entryY=0.5;entryDx=0;entryDy=0;" parent="1" source="VYkuQ8G43RXA0hPSaBdG-4" target="CUCYZQs7ReIc307yx0Ik-9" edge="1">
          <mxGeometry width="50" height="50" relative="1" as="geometry">
            <mxPoint x="368" y="650" as="sourcePoint" />
            <mxPoint x="418" y="600" as="targetPoint" />
          </mxGeometry>
        </mxCell>
        <mxCell id="u67dnZ7TjAeRBNaexq_y-3" value="&lt;span style=&quot;font-size: 11px;&quot;&gt;Create Tournament&lt;/span&gt;" style="ellipse;whiteSpace=wrap;html=1;" parent="1" vertex="1">
          <mxGeometry x="194.88" y="580" width="100" height="60" as="geometry" />
        </mxCell>
        <mxCell id="u67dnZ7TjAeRBNaexq_y-4" value="*" style="text;html=1;strokeColor=none;fillColor=none;align=center;verticalAlign=middle;whiteSpace=wrap;rounded=0;" parent="1" vertex="1">
          <mxGeometry x="236.13" y="580" width="60" height="30" as="geometry" />
        </mxCell>
        <mxCell id="u67dnZ7TjAeRBNaexq_y-5" value="" style="endArrow=classic;html=1;rounded=0;entryX=0;entryY=0.5;entryDx=0;entryDy=0;exitX=1;exitY=0.3333333333333333;exitDx=0;exitDy=0;exitPerimeter=0;" parent="1" source="VYkuQ8G43RXA0hPSaBdG-4" target="u67dnZ7TjAeRBNaexq_y-3" edge="1">
          <mxGeometry width="50" height="50" relative="1" as="geometry">
            <mxPoint x="310" y="600" as="sourcePoint" />
            <mxPoint x="360" y="550" as="targetPoint" />
          </mxGeometry>
        </mxCell>
      </root>
    </mxGraphModel>
  </diagram>
</mxfile>
